<svg xmlns="http://www.w3.org/2000/svg" width="148.296" height="50" viewBox="0 0 148.296 50">
  <g id="Group_4" data-name="Group 4" transform="translate(2 2)">
    <g id="Group_2" data-name="Group 2" transform="translate(0 0)">
      <g id="Layer_1" data-name="Layer 1">
        <text id="HOMIE" transform="translate(0 37)" fill="#fff" stroke="#496d53" stroke-miterlimit="10" stroke-width="2" font-size="39" font-family="SFCompactRounded-Bold, SF Compact Rounded" font-weight="700" letter-spacing="-0.05em"><tspan x="0" y="0">HOMIE</tspan></text>
      </g>
    </g>
    <g id="Group_3" data-name="Group 3" transform="translate(122.157 11.572)">
      <g id="Group_1" data-name="Group 1">
        <path id="Path_93" data-name="Path 93" d="M3027.844,222.543H3012.52a2.02,2.02,0,0,1-1.993-2.043V208.683l-.067.049a.855.855,0,0,1-1.206-.223l-.486-.718a.876.876,0,0,1-.138-.649.855.855,0,0,1,.348-.551l3.547-2.521v-3.02a.854.854,0,0,1,.842-.863h2.523a.856.856,0,0,1,.842.863v.032l2.961-2.1a.84.84,0,0,1,.981,0l10.716,7.609a.864.864,0,0,1,.348.551.882.882,0,0,1-.134.645h0l-.49.717a.855.855,0,0,1-1.206.223l-.071-.049v11.817a2.021,2.021,0,0,1-1.993,2.043Zm-16.854-15.23a.45.45,0,0,1,.214.053.476.476,0,0,1,.245.418V220.5a1.086,1.086,0,0,0,1.071,1.1h15.323a1.087,1.087,0,0,0,1.072-1.1V207.783a.475.475,0,0,1,.245-.418.455.455,0,0,1,.475.028l.747.531.411-.608-10.618-7.54-3.65,2.59a.439.439,0,0,1-.475.028.476.476,0,0,1-.245-.418v-.855h-2.369v3.19a.483.483,0,0,1-.2.389l-3.682,2.615.411.608.747-.531a.447.447,0,0,1,.261-.085Zm9.158-7.556Zm.071,0Z" transform="translate(-3008.616 -198.82)" fill="#496d53" stroke="#496d53" stroke-miterlimit="10" stroke-width="2"/>
        <ellipse id="Ellipse_5" data-name="Ellipse 5" cx="7.02" cy="0.705" rx="7.02" ry="0.705" transform="translate(4.549 25.515)" fill="#496d53" stroke="#496d53" stroke-miterlimit="10" stroke-width="1.11"/>
      </g>
      <rect id="Rectangle_2" data-name="Rectangle 2" width="5.706" height="6.522" transform="translate(9.092 16.145)" fill="#496d53"/>
    </g>
  </g>
</svg>
